<?xml version="1.0" encoding="utf-8"?>
<!-- Generator: Adobe Illustrator 25.1.0, SVG Export Plug-In . SVG Version: 6.00 Build 0)  -->
<svg version="1.1" id="Livello_1" xmlns="http://www.w3.org/2000/svg" xmlns:xlink="http://www.w3.org/1999/xlink" x="0px" y="0px"
	 viewBox="0 0 141.7 36.9" enable-background="new 0 0 141.7 36.9" xml:space="preserve">
<path fill="#FFFFFF" d="M30.5,4.1c-1.7,0.5-2.6,2.4-3.1,4c-1,3.4-1,7.2,0.4,10.5c0.6,1.3,1.4,2.6,2.9,2.9c1.3,0.3,2.5-0.7,3.1-1.8
	c1.4-2.2,1.7-5,1.7-7.5c-0.1-2.3-0.5-4.7-1.8-6.6C32.9,4.6,31.8,3.7,30.5,4.1 M30,0.1c2.2-0.4,4.4,0.6,5.8,2.2
	c2.4,2.6,3.4,6.2,3.5,9.6c0.1,3.4-0.5,6.9-2.4,9.8c-1.3,1.9-3.3,3.5-5.7,3.5c-2.1,0.1-4.1-0.9-5.4-2.5c-1.9-2.2-2.8-5-3.1-7.9
	c-0.4-3.7,0.2-7.6,2.1-10.9C26,2.2,27.8,0.5,30,0.1 M113.9,4.1c-0.8,0.2-1.4,0.8-1.9,1.4c-1.2,1.7-1.7,3.9-1.9,6
	c-0.2,2.6,0.1,5.2,1.3,7.6c0.6,1.1,1.5,2.4,2.9,2.5c1.4,0.1,2.4-1,3.1-2.1c1.3-2.3,1.6-4.9,1.5-7.5c-0.1-2.2-0.6-4.5-1.8-6.4
	C116.3,4.6,115.2,3.7,113.9,4.1 M113.4,0.1c2.1-0.4,4.3,0.5,5.7,2c2.4,2.5,3.5,6.1,3.6,9.6c0.1,3.5-0.5,7.1-2.4,10
	c-1.3,1.9-3.3,3.5-5.7,3.5c-2,0.1-4-0.9-5.3-2.4c-1.9-2.1-2.8-4.9-3.2-7.7c-0.4-3.7,0.1-7.7,2-11C109.3,2.3,111.1,0.6,113.4,0.1
	 M131.2,14.4c1.4,0,2.9-0.2,4.2-0.9c2.7-1.6,3.2-5.8,1-8c-1.3-1.4-3.3-1.8-5.1-1.7C131.2,7.4,131.2,10.9,131.2,14.4 M127.5,0.3
	c2.8-0.5,5.8-0.5,8.5,0.5c2.5,1,4.7,3.1,5.3,5.8c1,3.6-0.4,7.8-3.5,9.8c1.3,2.9,2.6,5.8,4,8.7h-4.4c-1-2.5-2.1-5-3.1-7.5
	c-1,0.3-2,0.4-3,0.4c0,2.4,0,4.7,0,7.1h-3.8C127.5,16.9,127.5,8.6,127.5,0.3 M0.3,0.2h3.4C5.5,4.3,7.2,8.5,9,12.6
	c1.7-4.1,3.5-8.2,5.2-12.4c1.2,0,2.3,0,3.5,0c0,8.3,0,16.7,0,25H14c0-5.2-0.1-10.3,0-15.5c-1.6,3.8-3.4,7.6-5,11.4
	c-1.7-3.7-3.3-7.4-5-11.2C4,15,4,20.1,4,25.2H0.3C0.3,16.9,0.3,8.5,0.3,0.2 M44.5,0.2h3.8c0,4.5,0,8.9,0,13.4
	c2.4-4.4,4.8-8.9,7.3-13.4c1.4,0,2.9,0,4.3,0c-2.1,3.7-4.2,7.5-6.3,11.2c2.2,4.6,4.2,9.2,6.4,13.8c-1.5,0-2.9,0-4.4,0
	c-1.5-3.4-3-6.8-4.4-10.3c-1,1.6-1.9,3.3-2.9,5c0,1.8,0,3.5,0,5.3h-3.8C44.5,16.9,44.5,8.5,44.5,0.2 M72.9,5.8
	c-0.9,3.7-1.6,7.5-2.3,11.3c1.6,0,3.1,0,4.7,0C74.5,13.3,73.8,9.6,72.9,5.8 M64.9,25.2c1.9-8.4,3.7-16.8,6.1-25h3.9
	c2.4,8.3,4.2,16.7,6.1,25c-1.4,0-2.8,0-4.2,0c-0.3-1.5-0.6-3-0.9-4.5c-2,0-4,0-6,0c-0.3,1.5-0.6,3-0.9,4.5
	C67.6,25.2,66.3,25.2,64.9,25.2 M90.6,3.9c0,5.9,0,11.7,0,17.6c1.7,0,3.4-0.3,4.6-1.5c1.7-1.6,2.1-4.1,2.2-6.3c0.1-2.8-0.2-5.8-2-8
	C94.2,4.3,92.4,3.9,90.6,3.9 M86.7,0.2c2.7,0.1,5.4-0.3,8,0.7c2.4,0.8,4.4,2.7,5.5,5c1.4,3.2,1.5,6.9,1,10.3c-0.5,3.2-2.2,6.5-5.2,8
	c-2.8,1.5-6.1,1-9.2,1.1V0.2z M0.4,34.5c-0.3-0.3-0.4-0.6-0.4-1c0-0.4,0.1-0.7,0.4-1c0.3-0.3,0.6-0.4,1-0.4c0.4,0,0.7,0.1,1,0.4
	c0.3,0.3,0.4,0.6,0.4,1c0,0.4-0.1,0.7-0.4,1c-0.3,0.3-0.6,0.4-1,0.4C1,34.9,0.7,34.8,0.4,34.5 M9,30.6h2V36h-0.9v-4.6H9V30.6z
	 M18.3,31.9c-0.4-0.4-0.8-0.6-1.4-0.6c-0.5,0-1,0.2-1.4,0.6c-0.4,0.4-0.6,0.8-0.6,1.4c0,0.5,0.2,1,0.6,1.4c0.4,0.4,0.8,0.6,1.4,0.6
	c0.5,0,1-0.2,1.4-0.6c0.4-0.4,0.6-0.8,0.6-1.4C18.8,32.8,18.6,32.3,18.3,31.9 M18.9,35.3c-0.6,0.5-1.2,0.8-2,0.8
	c-0.8,0-1.5-0.3-2-0.8c-0.5-0.5-0.8-1.2-0.8-2s0.3-1.5,0.8-2c0.6-0.5,1.2-0.8,2-0.8c0.8,0,1.5,0.3,2,0.8c0.5,0.5,0.8,1.2,0.8,2
	S19.5,34.8,18.9,35.3 M26.6,31.9c-0.4-0.4-0.8-0.6-1.4-0.6s-1,0.2-1.4,0.6c-0.4,0.4-0.6,0.8-0.6,1.4c0,0.5,0.2,1,0.6,1.4
	c0.4,0.4,0.8,0.6,1.4,0.6s1-0.2,1.4-0.6c0.4-0.4,0.6-0.8,0.6-1.4C27.2,32.8,27,32.3,26.6,31.9 M27.3,35.3c-0.5,0.5-1.2,0.8-2,0.8
	c-0.8,0-1.5-0.3-2-0.8c-0.5-0.5-0.8-1.2-0.8-2s0.3-1.5,0.8-2c0.6-0.5,1.2-0.8,2-0.8c0.8,0,1.5,0.3,2,0.8c0.5,0.5,0.8,1.2,0.8,2
	S27.8,34.8,27.3,35.3 M45.5,31.3c-0.3,0-0.5,0.1-0.7,0.2c-0.2,0.1-0.3,0.3-0.3,0.5c0,0.2,0.1,0.4,0.3,0.5c0.2,0.1,0.5,0.2,1.1,0.4
	c0.6,0.1,1,0.3,1.3,0.6c0.3,0.2,0.4,0.6,0.4,1.1c0,0.5-0.2,0.9-0.5,1.2c-0.4,0.3-0.8,0.4-1.4,0.4c-0.9,0-1.6-0.3-2.3-0.9l0.6-0.7
	c0.5,0.5,1.1,0.7,1.7,0.7c0.3,0,0.5-0.1,0.7-0.2c0.2-0.1,0.3-0.3,0.3-0.5c0-0.2-0.1-0.4-0.2-0.5c-0.2-0.1-0.4-0.2-0.8-0.3
	c-0.4-0.1-0.7-0.2-0.9-0.3c-0.2-0.1-0.4-0.2-0.5-0.3c-0.3-0.2-0.5-0.6-0.5-1.1c0-0.5,0.2-0.9,0.5-1.2c0.4-0.3,0.8-0.4,1.4-0.4
	c0.3,0,0.7,0.1,1,0.2c0.3,0.1,0.6,0.3,0.9,0.5l-0.5,0.7c-0.2-0.1-0.4-0.3-0.7-0.4C46,31.4,45.7,31.3,45.5,31.3 M52.6,31.4V36h-0.9
	v-4.6H50v-0.8h4.2v0.8H52.6z M60.1,33.1c0.2-0.2,0.3-0.4,0.3-0.8c0-0.4-0.1-0.6-0.3-0.7c-0.2-0.1-0.5-0.2-1-0.2h-1.2v1.9h1.1
	C59.6,33.4,59.9,33.3,60.1,33.1 M61.3,32.4c0,0.9-0.4,1.5-1.2,1.7l1.4,2h-1.2l-1.3-1.8h-1.2V36H57v-5.4h2c0.8,0,1.4,0.1,1.8,0.4
	C61.1,31.3,61.3,31.7,61.3,32.4 M67.6,33.9l-1-2.2l-1,2.2H67.6z M65.2,34.8L64.7,36h-1l2.4-5.4h1l2.4,5.4h-1l-0.5-1.2H65.2z
	 M75.7,31.9c-0.4-0.4-0.8-0.6-1.4-0.6c-0.5,0-1,0.2-1.4,0.6c-0.4,0.4-0.6,0.8-0.6,1.4c0,0.5,0.2,1,0.6,1.4c0.4,0.4,0.8,0.6,1.4,0.6
	c0.5,0,1-0.2,1.4-0.6c0.4-0.4,0.6-0.8,0.6-1.4C76.3,32.7,76.1,32.3,75.7,31.9 M76.4,35.3c-0.5,0.5-1.2,0.8-2,0.8
	c-0.8,0-1.5-0.3-2-0.8c-0.6-0.5-0.8-1.2-0.8-2c0-0.8,0.3-1.5,0.8-2c0.5-0.5,1.2-0.8,2-0.8c0.8,0,1.5,0.3,2,0.8
	c0.6,0.5,0.8,1.2,0.8,2C77.2,34.1,77,34.7,76.4,35.3 M83.3,33.1c0.2-0.2,0.3-0.4,0.3-0.8c0-0.4-0.1-0.6-0.3-0.7
	c-0.2-0.1-0.5-0.2-1-0.2h-1.2v1.9h1.1C82.8,33.4,83.1,33.3,83.3,33.1 M84.5,32.4c0,0.9-0.4,1.5-1.2,1.7l1.4,2h-1.2l-1.3-1.8h-1.2V36
	h-0.9v-5.4h2c0.8,0,1.4,0.1,1.8,0.4C84.3,31.3,84.5,31.7,84.5,32.4 M91.6,33.3c0-1.2-0.7-1.9-2.1-1.9h-0.9v3.7h1
	c0.7,0,1.2-0.2,1.5-0.5C91.4,34.4,91.6,33.9,91.6,33.3 M91.7,31.3c0.5,0.5,0.8,1.1,0.8,2c0,0.8-0.3,1.5-0.8,2
	c-0.5,0.5-1.3,0.7-2.3,0.7h-1.8v-5.4h1.9C90.5,30.6,91.2,30.8,91.7,31.3 M96.4,36h-0.9v-5.4h0.9V36z M103.8,30.6h0.9V36h-1l-3.1-4v4
	h-0.9v-5.4h0.9l3.2,4.1V30.6z M111.1,33.9l-1-2.2l-1,2.2H111.1z M108.8,34.8l-0.5,1.2h-1l2.4-5.4h1L113,36h-1l-0.5-1.2H108.8z
	 M118.7,33.1c0.2-0.2,0.3-0.4,0.3-0.8c0-0.4-0.1-0.6-0.3-0.7c-0.2-0.1-0.5-0.2-1-0.2h-1.2v1.9h1.1C118.1,33.4,118.5,33.3,118.7,33.1
	 M119.9,32.4c0,0.9-0.4,1.5-1.2,1.7l1.4,2H119l-1.3-1.8h-1.2V36h-0.9v-5.4h2c0.8,0,1.4,0.1,1.8,0.4
	C119.7,31.3,119.9,31.7,119.9,32.4 M123.9,36H123v-5.4h0.9V36z M131.1,31.9c-0.4-0.4-0.8-0.6-1.4-0.6c-0.5,0-1,0.2-1.4,0.6
	c-0.4,0.4-0.6,0.8-0.6,1.4c0,0.5,0.2,1,0.6,1.4c0.4,0.4,0.8,0.6,1.4,0.6c0.5,0,1-0.2,1.4-0.6c0.4-0.4,0.6-0.8,0.6-1.4
	C131.7,32.7,131.5,32.3,131.1,31.9 M131.8,35.3c-0.5,0.5-1.2,0.8-2,0.8c-0.8,0-1.5-0.3-2-0.8c-0.5-0.5-0.8-1.2-0.8-2
	c0-0.8,0.3-1.5,0.8-2c0.5-0.5,1.2-0.8,2-0.8c0.8,0,1.5,0.3,2,0.8c0.5,0.5,0.8,1.2,0.8,2C132.6,34.1,132.3,34.7,131.8,35.3
	 M139.4,34.6c-0.3-0.3-0.4-0.6-0.4-1c0-0.4,0.1-0.7,0.4-1c0.3-0.3,0.6-0.4,1-0.4c0.4,0,0.7,0.1,1,0.4c0.3,0.3,0.4,0.6,0.4,1
	c0,0.4-0.1,0.7-0.4,1c-0.3,0.3-0.6,0.4-1,0.4C140,35,139.7,34.8,139.4,34.6 M32.8,32.6c-0.3-0.2-0.5-0.4-0.6-0.7
	c-0.1-0.3-0.1-0.6,0.1-0.9c0.1-0.3,0.4-0.5,0.7-0.6c0.3-0.1,0.6-0.1,0.9,0.1c0.3,0.2,0.5,0.4,0.6,0.7c0.1,0.3,0.1,0.6-0.1,0.9
	c-0.1,0.3-0.4,0.5-0.7,0.6C33.3,32.8,33,32.7,32.8,32.6 M39.1,30.1L34,36.9l-0.8-0.6l5.1-6.7L39.1,30.1z M38,36.6
	c-0.3-0.1-0.5-0.4-0.6-0.7c-0.1-0.3-0.1-0.6,0.1-0.9c0.1-0.3,0.4-0.5,0.7-0.6c0.3-0.1,0.6-0.1,0.9,0.1c0.3,0.1,0.5,0.4,0.6,0.7
	c0.1,0.3,0.1,0.6-0.1,0.9c-0.1,0.3-0.4,0.5-0.7,0.6C38.6,36.8,38.3,36.8,38,36.6"/>
</svg>
